<svg width="640" height="480" viewBox="0 0 640 480" fill="none" xmlns="http://www.w3.org/2000/svg">
  <defs>
    <linearGradient id="heroGradient" x1="0" y1="0" x2="1" y2="1">
      <stop offset="0%" stop-color="#059669"/>
      <stop offset="50%" stop-color="#34D399"/>
      <stop offset="100%" stop-color="#ECFCCB"/>
    </linearGradient>
    <linearGradient id="blobGradient" x1="0" y1="0" x2="1" y2="1">
      <stop offset="0%" stop-color="rgba(255,255,255,0.4)"/>
      <stop offset="100%" stop-color="rgba(255,255,255,0.1)"/>
    </linearGradient>
    <linearGradient id="pulseGradient" x1="0" y1="0" x2="1" y2="1">
      <stop offset="0%" stop-color="#FDE68A"/>
      <stop offset="100%" stop-color="#F97316"/>
    </linearGradient>
    <filter id="shadow" x="-20%" y="-20%" width="140%" height="140%">
      <feDropShadow dx="0" dy="20" stdDeviation="30" flood-color="rgba(15,118,110,0.35)"/>
    </filter>
  </defs>

  <rect width="640" height="480" rx="32" fill="url(#heroGradient)"/>

  <g filter="url(#shadow)">
    <path d="M510 210C530 310 470 380 390 400C320 418 260 394 220 350C180 306 172 246 192 198C216 138 280 100 360 110C440 120 490 160 510 210Z" fill="url(#blobGradient)"/>
  </g>

  <g opacity="0.8">
    <circle cx="170" cy="150" r="28" fill="rgba(255,255,255,0.45)"/>
    <circle cx="500" cy="110" r="16" fill="rgba(255,255,255,0.28)"/>
    <circle cx="560" cy="320" r="22" fill="rgba(255,255,255,0.18)"/>
    <circle cx="140" cy="340" r="18" fill="rgba(255,255,255,0.2)"/>
  </g>

  <g transform="translate(140 160)">
    <rect x="0" y="0" width="360" height="220" rx="24" fill="rgba(255,255,255,0.95)"/>
    <rect x="26" y="32" width="120" height="12" rx="6" fill="#059669" opacity="0.85"/>
    <rect x="26" y="60" width="220" height="18" rx="9" fill="#065F46"/>
    <rect x="26" y="90" width="210" height="12" rx="6" fill="#0F766E" opacity="0.75"/>
    <rect x="26" y="110" width="150" height="12" rx="6" fill="#10B981" opacity="0.55"/>
    <rect x="26" y="150" width="120" height="16" rx="8" fill="#F59E0B" opacity="0.85"/>
    <rect x="166" y="150" width="120" height="16" rx="8" fill="#EC4899" opacity="0.75"/>
  </g>

  <g transform="translate(400 120) rotate(-8)">
    <rect x="-48" y="-48" width="96" height="96" rx="18" fill="rgba(255,255,255,0.2)"/>
    <path d="M0 -20 L20 0 L0 20" stroke="#FFFFFF" stroke-width="8" stroke-linecap="round" stroke-linejoin="round"/>
  </g>

  <g transform="translate(520 240)">
    <circle cx="0" cy="0" r="36" fill="url(#pulseGradient)" opacity="0.9"/>
    <circle cx="0" cy="0" r="28" fill="rgba(255,255,255,0.25)"/>
    <path d="M-12 0 L-2 10 L12 -10" stroke="#FFFFFF" stroke-width="5" stroke-linecap="round" stroke-linejoin="round"/>
  </g>
</svg>

